<svg width="80" height="80" viewBox="0 0 80 80" fill="none" xmlns="http://www.w3.org/2000/svg">
<path d="M65.6085 43.5474L59.7085 41.7273C60.5178 36.5796 59.6294 31.3081 57.1785 26.7102C54.7272 22.112 50.846 18.4361 46.1209 16.2388C41.3964 14.041 36.0848 13.441 30.9884 14.5289C25.8924 15.6169 21.2888 18.3338 17.8741 22.2692C14.4584 26.2049 12.4169 31.145 12.0572 36.3434C11.6978 41.5416 13.0398 46.7162 15.8808 51.084C18.7214 55.4523 22.9071 58.7773 27.8054 60.5563C32.7031 62.3358 38.0469 62.4729 43.0294 60.947L44.2696 64.947C44.3861 65.3238 44.6116 65.6581 44.9178 65.9072C45.2241 66.1563 45.5968 66.309 45.9897 66.347H46.1696C46.537 66.3474 46.8973 66.247 47.2111 66.0568C47.5254 65.8662 47.7808 65.5929 47.9495 65.2666L51.0093 59.3666L55.4695 63.8666C55.845 64.2456 56.3561 64.4586 56.8896 64.4586C57.4227 64.4586 57.9338 64.2456 58.3097 63.8666L64.5097 57.6465C64.8821 57.2715 65.091 56.7653 65.091 56.2367C65.091 55.7085 64.8821 55.2014 64.5097 54.8268L60.0294 50.3067L66.0294 47.2469C66.5075 47.0032 66.8678 46.5777 67.0294 46.0661C67.191 45.5545 67.1397 44.9992 66.8879 44.5256C66.6357 44.0519 66.2039 43.6992 65.6897 43.547L65.6085 43.5474ZM35.9685 58.1074C30.664 58.1074 25.5769 56.0002 21.8268 52.2494C18.0759 48.499 15.9687 43.4119 15.9687 38.1077C15.9687 32.8034 18.0759 27.7161 21.8268 23.966C25.5772 20.2151 30.6642 18.1079 35.9685 18.1079C41.2727 18.1079 46.36 20.2151 50.1102 23.966C53.861 27.7164 55.9682 32.8034 55.9682 38.1077C55.958 38.9706 55.8981 39.8318 55.7883 40.6876L50.0481 38.9077V38.1077C50.0959 34.3313 48.6352 30.6916 45.99 27.996C43.3446 25.3 39.7329 23.7714 35.9561 23.7482C32.1793 23.725 28.5494 25.2098 25.8713 27.8728C23.1927 30.5358 21.6879 34.1572 21.6891 37.934C21.6909 41.7108 23.199 45.3309 25.8798 47.9916C28.5601 50.6527 32.1914 52.134 35.9681 52.1077C37.3717 52.1166 38.7686 51.9072 40.1083 51.4876L41.8486 57.1077C39.949 57.7309 37.9671 58.0677 35.9685 58.1074ZM38.3087 35.1074C37.9614 35.0012 37.5913 34.9918 37.2391 35.0798C36.8868 35.1682 36.565 35.3503 36.3087 35.6074C36.0516 35.8641 35.869 36.1856 35.781 36.5382C35.6931 36.8905 35.7025 37.2601 35.8087 37.6074L38.9288 47.6074C37.9726 47.9173 36.9739 48.0793 35.9686 48.0873C33.2923 48.0954 30.7208 47.0494 28.8101 45.1753C26.8993 43.3013 25.8033 40.7503 25.7597 38.0744C25.7155 35.3986 26.7271 32.8133 28.5753 30.8775C30.4236 28.9418 32.9597 27.8119 35.6348 27.732C38.3097 27.6521 40.9085 28.6289 42.8687 30.4512C44.8289 32.2731 45.9928 34.7936 46.1089 37.4674L38.3087 35.1074ZM46.6489 59.1074L40.7485 40.1074L59.769 45.9873L51.769 50.1873C51.3998 50.3779 51.0994 50.6784 50.9092 51.0476L46.6489 59.1074ZM60.3083 56.2672L56.9285 59.6471L52.9285 55.6471L54.0882 53.4069L56.3083 52.2471L60.3083 56.2672Z" fill="#2B2B2A"/>
</svg>
