<svg width="80" height="80" viewBox="0 0 80 80" fill="none" xmlns="http://www.w3.org/2000/svg">
<path d="M55.8402 55.7794V23C55.8402 20.8786 54.9974 18.8433 53.4969 17.3433C51.9969 15.8429 49.9621 15 47.8402 15H27.8402C26.2286 15.0049 24.6563 15.496 23.3286 16.4098C22.0009 17.3232 20.9803 18.6166 20.4 20.1201H8C6.93929 20.1201 5.92183 20.5415 5.17189 21.2915C4.42144 22.042 4 23.0594 4 24.1201V35.9201C4 36.9808 4.42143 37.9983 5.17189 38.7487C5.92189 39.4987 6.93931 39.9201 8 39.9201H19.84V57.2401C19.84 59.3615 20.6829 61.3968 22.1833 62.8968C23.6833 64.3972 25.7182 65.2401 27.84 65.2401H47.84C49.9618 65.2401 51.9967 64.3972 53.4967 62.8968C54.9971 61.3968 55.84 59.3615 55.84 57.2401L55.8402 55.7794ZM27.8402 19H47.8402C48.9009 19 49.9184 19.4214 50.6688 20.1719C51.4188 20.9219 51.8402 21.9393 51.8402 23V53.7794H23.8402V42.4995L26.1603 45.3794C26.5675 45.8839 27.1934 46.1598 27.8402 46.1196C28.0063 46.1392 28.1742 46.1392 28.3402 46.1196C28.7143 46.0201 29.0514 45.8138 29.3103 45.5263C29.5697 45.2384 29.7398 44.8821 29.8001 44.4995L30.5402 39.9794H34.2201C35.2813 39.9794 36.2987 39.558 37.0487 38.808C37.7986 38.058 38.2201 37.0405 38.2201 35.9794V24.12C38.2201 23.0593 37.7987 22.0418 37.0487 21.2914C36.2987 20.5414 35.2813 20.12 34.2201 20.12H25.0201C25.7768 19.391 26.7897 18.9883 27.8402 18.9999L27.8402 19ZM8.00023 24.1201H34.1008V35.9201H28.741C28.2616 35.9139 27.7959 36.0804 27.429 36.3884C27.0621 36.6969 26.8179 37.1268 26.7411 37.6001L26.4813 39.2403L24.3813 36.6604C24.2889 36.5519 24.1808 36.4573 24.0612 36.3801C23.9612 36.3801 23.8813 36.2399 23.7612 36.1801L23.3612 36.1202C23.2286 36.1015 23.0938 36.1015 22.9612 36.1202H8.00118L8.00023 24.1201ZM47.8402 61.2401H27.8402C26.8666 61.249 25.9233 60.9026 25.1866 60.2656C24.4505 59.6285 23.9714 58.7445 23.8402 57.7798H51.8402C51.709 58.7446 51.23 59.6285 50.4938 60.2656C49.7572 60.9026 48.8139 61.249 47.8402 61.2401Z" fill="#2B2B2A"/>
<path d="M23.1201 30.1201C23.1201 31.2246 22.2246 32.1201 21.1201 32.1201C20.0157 32.1201 19.1201 31.2246 19.1201 30.1201C19.1201 29.0156 20.0157 28.1201 21.1201 28.1201C22.2246 28.1201 23.1201 29.0156 23.1201 30.1201Z" fill="#2B2B2A"/>
<path d="M29.1201 30.1201C29.1201 31.2246 28.2246 32.1201 27.1201 32.1201C26.0156 32.1201 25.1201 31.2246 25.1201 30.1201C25.1201 29.0156 26.0156 28.1201 27.1201 28.1201C28.2246 28.1201 29.1201 29.0156 29.1201 30.1201Z" fill="#2B2B2A"/>
<path d="M17.1201 30.1201C17.1201 31.2246 16.2246 32.1201 15.1201 32.1201C14.0157 32.1201 13.1201 31.2246 13.1201 30.1201C13.1201 29.0156 14.0157 28.1201 15.1201 28.1201C16.2246 28.1201 17.1201 29.0156 17.1201 30.1201Z" fill="#2B2B2A"/>
</svg>
