<svg width="80" height="80" viewBox="0 0 80 80" fill="none" xmlns="http://www.w3.org/2000/svg">
<g id="noun-achievement-3832916 1">
<g id="Group">
<path id="Vector" d="M8.63394 30.272C8.27597 30.5722 8.00931 30.9655 7.86254 31.4092C7.71633 31.8523 7.69673 32.3279 7.80596 32.7817C8.00315 33.8253 8.63225 34.7368 9.53751 35.2914C9.89099 34.9889 10.1532 34.5939 10.2949 34.1503C10.4366 33.7071 10.4523 33.2332 10.3403 32.7817C10.152 31.7414 9.5319 30.83 8.63396 30.272H8.63394Z" fill="#2B2B2A"/>
<path id="Vector_2" d="M5.99988 36.4961C6.2643 37.5588 6.95389 38.4662 7.90739 39.0057C8.31241 39.2926 8.7869 39.4645 9.28156 39.5043C9.77621 39.5441 10.2726 39.45 10.718 39.2315C10.4457 38.1722 9.75834 37.2675 8.81102 36.7218C8.40376 36.4401 7.92927 36.2703 7.43574 36.2305C6.9422 36.1913 6.44699 36.2826 5.99991 36.4961L5.99988 36.4961Z" fill="#2B2B2A"/>
<path id="Vector_3" d="M13.2013 34.7893C13.7268 35.6941 13.7828 36.7977 13.3515 37.7511C13.1638 38.1757 12.8467 38.5303 12.4462 38.7645C12.0451 38.9992 11.5801 39.1006 11.118 39.0558C10.5757 38.1667 10.5101 37.0671 10.9426 36.1197C11.1308 35.6878 11.4507 35.327 11.8563 35.0884C12.2619 34.8492 12.7325 34.745 13.2013 34.7892V34.7893Z" fill="#2B2B2A"/>
<path id="Vector_4" d="M9.16217 42.9708C9.60305 44.1265 10.5156 45.0396 11.6719 45.4805C12.1464 45.7152 12.6769 45.8138 13.2041 45.7651C13.7313 45.7163 14.2348 45.5225 14.6584 45.2043C14.2321 44.0391 13.3139 43.1215 12.1487 42.6946C11.6765 42.4509 11.1443 42.3478 10.6149 42.3966C10.0861 42.4453 9.58192 42.6447 9.16231 42.9708H9.16217Z" fill="#2B2B2A"/>
<path id="Vector_5" d="M16.4398 39.6582C17.1871 40.5887 17.4314 41.8267 17.0925 42.9713C16.9687 43.4643 16.6992 43.9079 16.3183 44.2441C15.9374 44.5802 15.4634 44.7925 14.9593 44.8536C14.2618 43.899 14.0568 42.6704 14.4069 41.5405C14.5234 41.0621 14.7783 40.6285 15.1402 40.2935C15.5015 39.959 15.9536 39.7378 16.4398 39.6582Z" fill="#2B2B2A"/>
<path id="Vector_6" d="M12.6758 49.872C13.3363 51.0064 14.4678 51.7884 15.7624 52.0052C16.3125 52.1442 16.8918 52.11 17.4217 51.9078C17.9511 51.7061 18.406 51.3453 18.7241 50.8759C18.0631 49.7415 16.9321 48.9595 15.6369 48.7426C15.0874 48.6037 14.5081 48.6379 13.9782 48.8401C13.4483 49.0418 12.9934 49.4026 12.6758 49.872Z" fill="#2B2B2A"/>
<path id="Vector_7" d="M19.2249 44.2515C20.2008 45.1231 20.7425 46.3814 20.7055 47.6895C20.7621 48.2766 20.6293 48.8659 20.3268 49.3712C20.0237 49.8771 19.5677 50.2732 19.0238 50.5006C18.0384 49.6334 17.4872 48.3747 17.518 47.062C17.4676 46.4733 17.6054 45.8834 17.9124 45.3781C18.2194 44.8728 18.6787 44.4784 19.2249 44.2515L19.2249 44.2515Z" fill="#2B2B2A"/>
<path id="Vector_8" d="M17.4922 54.867C18.2664 55.9163 19.477 56.5544 20.78 56.5986C21.3425 56.6434 21.9055 56.5157 22.394 56.2333C22.8825 55.951 23.2735 55.5275 23.5155 55.0177C22.7419 53.9684 21.5307 53.3303 20.2282 53.2861C19.6658 53.2413 19.1028 53.369 18.6143 53.6514C18.1258 53.9337 17.7348 54.3578 17.4922 54.867H17.4922Z" fill="#2B2B2A"/>
<path id="Vector_9" d="M23.1159 48.2159C24.1914 48.9895 24.8855 50.186 25.0228 51.5037C25.1231 52.0712 25.0525 52.6555 24.82 53.1826C24.5875 53.7098 24.2043 54.1562 23.7181 54.4649C22.694 53.6633 22.0486 52.4728 21.9361 51.1776C21.8235 50.6225 21.875 50.0472 22.0845 49.5211C22.294 48.9951 22.6526 48.5413 23.1158 48.2158L23.1159 48.2159Z" fill="#2B2B2A"/>
<path id="Vector_10" d="M24.094 59.9364C25.1645 60.7672 26.5881 60.9857 27.8586 60.5134C28.4395 60.2815 28.9375 59.8793 29.2865 59.36C29.6355 58.8407 29.8204 58.2284 29.8159 57.602C29.2955 57.1824 28.6725 56.908 28.0115 56.8066C27.3504 56.7052 26.6743 56.7802 26.0513 57.025C25.4682 57.2542 24.9685 57.6552 24.6189 58.1757C24.2693 58.6955 24.0862 59.3095 24.094 59.9363L24.094 59.9364Z" fill="#2B2B2A"/>
<path id="Vector_11" d="M26.7792 50.0986C28.1881 50.5653 29.3181 51.6308 29.8665 53.01C30.527 54.2223 30.527 55.6878 29.8665 56.9001C28.4749 56.4048 27.355 55.3489 26.7792 53.9887C26.1283 52.7741 26.1283 51.3138 26.7792 50.0986Z" fill="#2B2B2A"/>
<path id="Vector_12" d="M30.469 61.9947C31.6448 62.914 33.215 63.1515 34.61 62.6221C35.2441 62.3661 35.7864 61.9252 36.1667 61.3566C36.5471 60.7886 36.7477 60.1191 36.7432 59.4352C35.5819 58.5075 34.0183 58.2593 32.6274 58.7826C31.9865 59.0397 31.4381 59.4834 31.0532 60.0565C30.6683 60.629 30.4644 61.3046 30.4689 61.9948L30.469 61.9947Z" fill="#2B2B2A"/>
<path id="Vector_13" d="M33.4304 51.2031C34.9636 51.7325 36.1972 52.8927 36.8185 54.3907C37.5608 55.7162 37.5608 57.3318 36.8185 58.6572C35.2785 58.1486 34.0276 57.0074 33.3805 55.5201C32.65 54.1695 32.6691 52.537 33.4304 51.2031H33.4304Z" fill="#2B2B2A"/>
<path id="Vector_14" d="M70.373 30.272C70.731 30.5722 70.9976 30.9655 71.1444 31.4092C71.2906 31.8523 71.3102 32.3279 71.201 32.7817C71.0038 33.8253 70.3747 34.7368 69.4694 35.2914C69.1159 34.9889 68.8537 34.5939 68.712 34.1503C68.5703 33.7071 68.5546 33.2332 68.6666 32.7817C68.8549 31.7414 69.475 30.83 70.373 30.272H70.373Z" fill="#2B2B2A"/>
<path id="Vector_15" d="M73.0072 36.4961C72.7427 37.5588 72.0531 38.4662 71.0996 39.0057C70.6946 39.2926 70.2201 39.4645 69.7255 39.5043C69.2308 39.5441 68.7345 39.45 68.2891 39.2315C68.5613 38.1722 69.2487 37.2675 70.196 36.7218C70.6033 36.4401 71.0778 36.2703 71.5713 36.2305C72.0648 36.1913 72.56 36.2826 73.0071 36.4961L73.0072 36.4961Z" fill="#2B2B2A"/>
<path id="Vector_16" d="M65.8052 34.7893C65.2798 35.6941 65.2237 36.7977 65.6551 37.7511C65.8428 38.1757 66.1598 38.5303 66.5604 38.7645C66.9615 38.9992 67.4265 39.1006 67.8886 39.0558C68.4309 38.1667 68.4964 37.0671 68.064 36.1197C67.8757 35.6878 67.5559 35.327 67.1503 35.0884C66.7447 34.8492 66.2741 34.745 65.8052 34.7892V34.7893Z" fill="#2B2B2A"/>
<path id="Vector_17" d="M69.8449 42.9708C69.404 44.1265 68.4914 45.0396 67.3352 45.4805C66.8607 45.7152 66.3302 45.8138 65.803 45.7651C65.2758 45.7163 64.7722 45.5225 64.3486 45.2043C64.775 44.0391 65.6931 43.1215 66.8583 42.6946C67.3306 42.4509 67.8628 42.3478 68.3921 42.3966C68.9209 42.4453 69.4251 42.6447 69.8447 42.9708H69.8449Z" fill="#2B2B2A"/>
<path id="Vector_18" d="M62.567 39.6582C61.8197 40.5887 61.5755 41.8267 61.9144 42.9713C62.0382 43.4643 62.3077 43.9079 62.6886 44.2441C63.0695 44.5802 63.5434 44.7925 64.0476 44.8536C64.7451 43.899 64.9501 42.6704 64.6 41.5405C64.4835 41.0621 64.2286 40.6285 63.8667 40.2935C63.5054 39.959 63.0533 39.7378 62.567 39.6582Z" fill="#2B2B2A"/>
<path id="Vector_19" d="M66.3314 49.872C65.6709 51.0064 64.5394 51.7884 63.2448 52.0052C62.6947 52.1442 62.1154 52.11 61.5855 51.9078C61.0561 51.7061 60.6013 51.3453 60.2831 50.8759C60.9441 49.7415 62.0751 48.9595 63.3703 48.7426C63.9198 48.6037 64.4991 48.6379 65.029 48.8401C65.5589 49.0418 66.0138 49.4026 66.3314 49.872Z" fill="#2B2B2A"/>
<path id="Vector_20" d="M59.7824 44.2515C58.8065 45.1231 58.2648 46.3814 58.3018 47.6895C58.2452 48.2766 58.378 48.8659 58.6805 49.3712C58.9836 49.8771 59.4396 50.2732 59.9835 50.5006C60.9689 49.6334 61.5201 48.3747 61.4893 47.062C61.5397 46.4733 61.4019 45.8834 61.0949 45.3781C60.7879 44.8728 60.3286 44.4784 59.7824 44.2515L59.7824 44.2515Z" fill="#2B2B2A"/>
<path id="Vector_21" d="M61.5145 54.867C60.7403 55.9163 59.5297 56.5544 58.2267 56.5986C57.6642 56.6434 57.1012 56.5157 56.6127 56.2333C56.1242 55.951 55.7332 55.5275 55.4912 55.0177C56.2648 53.9684 57.476 53.3303 58.7785 53.2861C59.3409 53.2413 59.9039 53.369 60.3924 53.6514C60.8809 53.9337 61.2719 54.3578 61.5145 54.867H61.5145Z" fill="#2B2B2A"/>
<path id="Vector_22" d="M55.8908 48.2158C54.8152 48.9895 54.1211 50.186 53.9838 51.5037C53.8835 52.0711 53.9541 52.6554 54.1866 53.1826C54.4191 53.7097 54.8023 54.1562 55.2885 54.4649C56.3597 53.6873 57.0521 52.493 57.1961 51.1776C57.2958 50.6101 57.2252 50.0258 56.9927 49.4987C56.7608 48.9715 56.377 48.5251 55.8908 48.2158L55.8908 48.2158Z" fill="#2B2B2A"/>
<path id="Vector_23" d="M54.9134 59.9364C53.8428 60.7672 52.4193 60.9857 51.1488 60.5134C50.5679 60.2815 50.0699 59.8793 49.7209 59.36C49.3719 58.8407 49.187 58.2284 49.1915 57.602C49.7119 57.1824 50.3349 56.908 50.9959 56.8066C51.6569 56.7052 52.3331 56.7802 52.956 57.025C53.5392 57.2542 54.0389 57.6552 54.3885 58.1757C54.738 58.6955 54.9212 59.3095 54.9134 59.9363L54.9134 59.9364Z" fill="#2B2B2A"/>
<path id="Vector_24" d="M52.2281 50.0986C50.8192 50.5653 49.6893 51.6308 49.1409 53.01C48.4804 54.2223 48.4804 55.6878 49.1409 56.9001C50.5324 56.4048 51.6523 55.3489 52.2281 53.9887C52.879 52.7741 52.879 51.3138 52.2281 50.0986Z" fill="#2B2B2A"/>
<path id="Vector_25" d="M48.5379 61.9947C47.3621 62.914 45.7919 63.1515 44.3969 62.6221C43.7628 62.3661 43.2205 61.9252 42.8402 61.3566C42.4598 60.7886 42.2593 60.1191 42.2637 59.4352C43.425 58.5075 44.9886 58.2593 46.3795 58.7826C47.0204 59.0397 47.5688 59.4834 47.9537 60.0565C48.3386 60.629 48.5425 61.3046 48.538 61.9948L48.5379 61.9947Z" fill="#2B2B2A"/>
<path id="Vector_26" d="M45.5776 51.2031C44.0444 51.7325 42.8108 52.8927 42.1895 54.3907C41.4472 55.7162 41.4472 57.3318 42.1895 58.6572C43.7295 58.1486 44.9805 57.0074 45.6275 55.5201C46.358 54.1695 46.339 52.537 45.5777 51.2031H45.5776Z" fill="#2B2B2A"/>
<path id="Vector_27" d="M26.5542 45.4807C27.1889 45.4874 27.799 45.2387 28.2477 44.79C28.6965 44.3412 28.9452 43.7306 28.9385 43.0964V41.2646C28.9575 40.4624 29.2824 39.6983 29.8477 39.1291C30.4123 38.5594 31.1737 38.2277 31.9753 38.2025H47.0335C47.8609 38.2025 48.6553 38.5297 49.2429 39.1123C49.8305 39.6955 50.1639 40.487 50.1706 41.3144V43.1467C50.1017 43.8179 50.3202 44.4867 50.7722 44.9881C51.2243 45.4889 51.8674 45.7752 52.5425 45.7752C53.217 45.7752 53.8601 45.4889 54.3122 44.9881C54.7643 44.4868 54.9833 43.8179 54.9139 43.1467V41.3144C54.9139 39.2243 54.0836 37.2198 52.6058 35.7421C51.1279 34.2643 49.1236 33.4341 47.0335 33.4341H31.9754C29.9026 33.4604 27.924 34.3024 26.4681 35.7774C25.0116 37.2524 24.1953 39.2417 24.1953 41.3144V43.1467C24.202 43.768 24.4536 44.3613 24.895 44.7983C25.337 45.2358 25.9331 45.4806 26.5543 45.4806L26.5542 45.4807Z" fill="#2B2B2A"/>
<path id="Vector_28" d="M39.5036 31.6028C41.3075 31.6028 43.0374 30.8858 44.3129 29.6107C45.5885 28.3351 46.305 26.6052 46.305 24.8014C46.305 22.9976 45.5886 21.2676 44.3129 19.9921C43.0374 18.7166 41.3075 18 39.5036 18C37.6998 18 35.9698 18.7165 34.6943 19.9921C33.4188 21.2677 32.7022 22.9976 32.7022 24.8014C32.7089 26.603 33.4277 28.329 34.7015 29.6034C35.9754 30.8773 37.702 31.5961 39.5035 31.6027L39.5036 31.6028ZM39.5036 22.8939C40.326 22.8939 41.0671 23.3891 41.382 24.1488C41.6963 24.9084 41.5226 25.7829 40.9412 26.3643C40.3597 26.9458 39.4852 27.1195 38.7256 26.8046C37.966 26.4904 37.4707 25.7492 37.4707 24.9268C37.4707 24.3873 37.6853 23.8703 38.0662 23.4894C38.4477 23.1079 38.9648 22.8939 39.5036 22.8939H39.5036Z" fill="#2B2B2A"/>
</g>
</g>
</svg>
