<svg width="80" height="80" viewBox="0 0 80 80" fill="none" xmlns="http://www.w3.org/2000/svg">
<g id="noun-portfolio-3832910">
<g id="Group">
<path id="Vector" d="M64.4798 40.4H59.8999V26.4C59.9146 26.2201 59.9146 26.0398 59.8999 25.8599C59.9093 25.8005 59.9093 25.7398 59.8999 25.68C59.7093 24.2273 58.9941 22.8947 57.8887 21.9331C56.7838 20.9715 55.3646 20.4478 53.8999 20.4598H45.3397C45.3504 17.4482 43.7535 14.6594 41.1509 13.1442C38.5482 11.6294 35.3343 11.6179 32.7209 13.1143C30.1071 14.6112 28.4905 17.3883 28.4799 20.4H20C18.4946 20.3942 17.0424 20.9545 15.9309 21.9696C14.8197 22.9848 14.1304 24.3803 14 25.8799V26.4V26.6799V50.3999C14 51.9914 14.6321 53.5172 15.7571 54.6427C16.8826 55.7677 18.4085 56.3999 20 56.3999H44.48V66.3999C44.48 66.9302 44.6907 67.4392 45.0657 67.8142C45.4407 68.1892 45.9496 68.3999 46.48 68.3999H64.48C65.0104 68.3999 65.5193 68.1892 65.8943 67.8142C66.2693 67.4392 66.48 66.9302 66.48 66.3999V42.3999C66.48 41.8695 66.2693 41.3606 65.8943 40.9856C65.5193 40.6106 65.0104 40.3999 64.48 40.3999L64.4798 40.4ZM36.9598 16.6C38.0254 16.6067 39.0535 16.9929 39.8598 17.6893C40.6665 18.3858 41.1982 19.3469 41.3598 20.4001H32.4799C32.6437 19.3331 33.187 18.3612 34.0103 17.6635C34.833 16.9653 35.8808 16.5876 36.9599 16.6001L36.9598 16.6ZM19.9998 24.4H53.8798C54.3771 24.3974 54.8579 24.5804 55.2275 24.9134C55.5976 25.2465 55.8302 25.705 55.8798 26.2001V26.4001C55.8119 28.4778 54.8494 30.4246 53.2395 31.7403C51.3414 33.3148 48.9463 34.1653 46.4798 34.1403H38.9597V32.4001C38.9597 31.6853 38.5784 31.0251 37.9597 30.668C37.3409 30.3108 36.5784 30.3108 35.9597 30.668C35.3409 31.0251 34.9597 31.6854 34.9597 32.4001V34.1403H27.4199C22.2601 34.1403 18.0601 30.6604 18.0199 26.4805V26.16C18.0784 25.6756 18.3119 25.2296 18.6766 24.9055C19.0413 24.5809 19.5119 24.4014 19.9998 24.4001L19.9998 24.4ZM19.9998 52.4001C19.4694 52.4001 18.9605 52.1893 18.5855 51.8143C18.2105 51.4393 17.9998 50.9304 17.9998 50.4001V34.72C20.6261 36.9557 23.9707 38.1701 27.4199 38.1402H34.9601L34.9597 38.4C34.9597 39.1147 35.3409 39.7749 35.9597 40.1321C36.5784 40.4892 37.3409 40.4892 37.9597 40.1321C38.5784 39.7749 38.9597 39.1147 38.9597 38.4V38.1402H46.4798C49.8985 38.1799 53.2186 36.995 55.8396 34.7999V40.3999H46.4798C45.9494 40.3999 45.4405 40.6107 45.0655 40.9856C44.6905 41.3606 44.4798 41.8696 44.4798 42.3999V52.3999L19.9998 52.4001ZM62.4798 64.4001H48.4798V44.4H62.4798V64.4001Z" fill="#2B2B2A"/>
<path id="Vector_2" d="M52.4795 52.3999H58.4795C59.1942 52.3999 59.8544 52.0187 60.2116 51.3999C60.5687 50.7811 60.5687 50.0186 60.2116 49.3999C59.8544 48.7812 59.1942 48.3999 58.4795 48.3999H52.4795C51.7647 48.3999 51.1045 48.7811 50.7473 49.3999C50.3902 50.0187 50.3902 50.7812 50.7473 51.3999C51.1045 52.0186 51.7648 52.3999 52.4795 52.3999Z" fill="#2B2B2A"/>
<path id="Vector_3" d="M52.4795 60.3999H58.4795C59.1942 60.3999 59.8544 60.0187 60.2116 59.3999C60.5687 58.7812 60.5687 58.0186 60.2116 57.3999C59.8544 56.7812 59.1942 56.3999 58.4795 56.3999H52.4795C51.7647 56.3999 51.1045 56.7811 50.7473 57.3999C50.3902 58.0187 50.3902 58.7812 50.7473 59.3999C51.1045 60.0187 51.7648 60.3999 52.4795 60.3999Z" fill="#2B2B2A"/>
</g>
</g>
</svg>
