<svg width="80" height="80" viewBox="0 0 80 80" fill="none" xmlns="http://www.w3.org/2000/svg">
<g id="noun-achievement-3832915 (1)">
<g id="Group">
<path id="Vector" d="M64.7915 36.4799C65.3661 35.8361 65.6357 34.9763 65.5317 34.1201C65.5139 33.7469 65.3924 33.3861 65.1804 33.0785C64.9683 32.771 64.6741 32.529 64.3317 32.3799C63.7522 33.0214 63.4754 33.8808 63.5714 34.7401C63.5911 35.1151 63.7156 35.4776 63.9313 35.7852C64.1473 36.0932 64.4451 36.3339 64.7915 36.4799Z" fill="#2B2B2A"/>
<path id="Vector_2" d="M65.6904 37.44C65.0422 38.1266 64.7216 39.0597 64.8105 39.9998C65.2096 40.0619 65.6181 40.0168 65.9939 39.8695C66.3703 39.7217 66.7002 39.477 66.9506 39.1596C67.6363 38.5007 67.989 37.5676 67.9104 36.6199C67.5006 36.5283 67.0734 36.5569 66.6796 36.7025C66.2858 36.8475 65.9421 37.1038 65.6903 37.44L65.6904 37.44Z" fill="#2B2B2A"/>
<path id="Vector_3" d="M64.4521 39.7997C64.6646 38.9783 64.4628 38.1051 63.9119 37.4595C63.6664 37.1863 63.345 36.9925 62.9887 36.9032C62.632 36.8139 62.257 36.8336 61.9119 36.9595C61.7137 37.7876 61.9298 38.6604 62.4918 39.2997C62.7311 39.5698 63.0454 39.7618 63.3949 39.851C63.7445 39.9403 64.1128 39.9225 64.4521 39.7997L64.4521 39.7997Z" fill="#2B2B2A"/>
<path id="Vector_4" d="M64.4709 42.7998C63.6954 43.4136 63.2218 44.3319 63.1709 45.3199C63.578 45.469 64.0182 45.5012 64.4423 45.4128C64.8669 45.3244 65.2575 45.119 65.5709 44.8199C66.3361 44.2083 66.8021 43.2981 66.8512 42.3199C66.4499 42.165 66.0128 42.128 65.591 42.2132C65.1696 42.298 64.7812 42.5016 64.4709 42.7998L64.4709 42.7998Z" fill="#2B2B2A"/>
<path id="Vector_5" d="M62.7912 45.1407C63.1452 44.2604 63.0563 43.2639 62.5514 42.4604C62.3434 42.1032 62.03 41.8188 61.6537 41.647C61.2778 41.4751 60.8577 41.4238 60.4514 41.5005C60.1067 42.3822 60.1956 43.3743 60.6911 44.1804C60.8991 44.538 61.2125 44.8224 61.5889 44.9943C61.9648 45.1661 62.3849 45.217 62.7912 45.1407V45.1407Z" fill="#2B2B2A"/>
<path id="Vector_6" d="M63.2119 48.3598C62.2182 48.8187 61.4838 49.7 61.2119 50.7598C61.5731 51.0478 62.0133 51.2192 62.474 51.2513C62.9347 51.2835 63.3941 51.175 63.7918 50.9402C64.7445 50.4647 65.4391 49.5942 65.6918 48.5598C65.3436 48.2875 64.9226 48.1237 64.482 48.0879C64.0409 48.0522 63.5994 48.1469 63.2119 48.3598V48.3598Z" fill="#2B2B2A"/>
<path id="Vector_7" d="M60.9514 50.4398C61.509 49.5345 61.6402 48.4304 61.3112 47.4197C61.1965 46.9634 60.942 46.5541 60.5835 46.2496C60.2246 45.9447 59.7799 45.7595 59.3112 45.7197C58.7429 46.6206 58.6107 47.73 58.9513 48.7398C59.0634 49.1974 59.317 49.6082 59.6759 49.9136C60.0353 50.2185 60.4813 50.4028 60.9513 50.4399L60.9514 50.4398Z" fill="#2B2B2A"/>
<path id="Vector_8" d="M60.6906 52.9796C59.6986 53.335 58.9151 54.1113 58.5508 55.0997C58.8593 55.4385 59.2637 55.6756 59.7102 55.7792C60.1567 55.8827 60.6245 55.8479 61.0508 55.6796C62.0445 55.3385 62.8307 54.5667 63.1906 53.5796C62.8843 53.2377 62.4807 52.9966 62.0343 52.8894C61.5874 52.7823 61.1191 52.814 60.6906 52.9796V52.9796Z" fill="#2B2B2A"/>
<path id="Vector_9" d="M56.5518 52.6992C56.6125 53.1608 56.8054 53.5952 57.1067 53.9496C57.4085 54.3045 57.8058 54.5648 58.2518 54.6992C58.917 53.8518 59.18 52.7563 58.9715 51.6992C58.9108 51.2376 58.7179 50.8032 58.4166 50.4488C58.1148 50.0939 57.7175 49.8336 57.2714 49.6992C56.6161 50.5514 56.354 51.6425 56.5518 52.6992Z" fill="#2B2B2A"/>
<path id="Vector_10" d="M57.052 57.24C55.952 57.1614 54.8908 57.6614 54.252 58.5596C54.3939 59.0489 54.6796 59.4837 55.072 59.8083C55.464 60.1329 55.9448 60.332 56.4519 60.3797C57.555 60.4539 58.6171 59.9458 59.2519 59.04C59.1064 58.5547 58.8193 58.1239 58.4269 57.8034C58.035 57.4824 57.5559 57.2865 57.052 57.24V57.24Z" fill="#2B2B2A"/>
<path id="Vector_11" d="M53.1515 55.0204C52.922 56.1159 53.2778 57.2516 54.0912 58.0204C55.1019 57.3383 55.7657 56.2508 55.9113 55.0405C56.1238 53.9419 55.7618 52.811 54.9515 52.0405C53.9444 52.7227 53.2868 53.8115 53.1515 55.0204H53.1515Z" fill="#2B2B2A"/>
<path id="Vector_12" d="M52.3512 60.1599C51.1437 60.0671 49.9784 60.6233 49.291 61.6202C49.4459 62.1585 49.7598 62.6376 50.1919 62.9942C50.6236 63.3513 51.1531 63.5692 51.7111 63.6201C52.9169 63.7045 54.0785 63.1505 54.7709 62.1599C54.624 61.6175 54.3119 61.134 53.8789 60.7755C53.4454 60.4175 52.9115 60.2023 52.3512 60.1599L52.3512 60.1599Z" fill="#2B2B2A"/>
<path id="Vector_13" d="M50.992 57.7404C51.2175 56.528 50.8108 55.2847 49.9121 54.4404C48.8483 55.2172 48.1648 56.4096 48.0322 57.7203C47.7965 58.9252 48.188 60.1676 49.0719 61.0203C50.155 60.2547 50.855 59.0592 50.9921 57.7404H50.992Z" fill="#2B2B2A"/>
<path id="Vector_14" d="M16.2517 34.7406C16.3477 33.8812 16.0709 33.0219 15.4914 32.3804C15.149 32.5295 14.8548 32.7714 14.6428 33.079C14.4307 33.3866 14.3093 33.7473 14.2914 34.1206C14.1874 34.9768 14.4571 35.8367 15.0316 36.4803C15.3781 36.3343 15.6758 36.0937 15.8919 35.7857C16.1075 35.4781 16.2321 35.1156 16.2517 34.7406Z" fill="#2B2B2A"/>
<path id="Vector_15" d="M15.0108 39.9999C15.0706 39.0932 14.7523 38.2025 14.1309 37.5401C13.8871 37.2214 13.5604 36.9763 13.1863 36.8316C12.8122 36.687 12.4055 36.6486 12.0108 36.72C11.9363 37.6187 12.2492 38.5067 12.8706 39.1598C13.1211 39.4772 13.451 39.7219 13.8273 39.8696C14.2032 40.0169 14.6117 40.062 15.0108 40L15.0108 39.9999Z" fill="#2B2B2A"/>
<path id="Vector_16" d="M15.371 39.7997C15.7156 39.9314 16.0919 39.9537 16.45 39.8644C16.8076 39.7751 17.129 39.5778 17.371 39.2997C17.9192 38.6528 18.1201 37.781 17.9112 36.9595C17.5661 36.8336 17.1911 36.8139 16.8344 36.9032C16.4781 36.9925 16.1567 37.1863 15.9111 37.4595C15.3603 38.105 15.1585 38.9782 15.371 39.7997V39.7997Z" fill="#2B2B2A"/>
<path id="Vector_17" d="M16.6519 45.32C16.601 44.332 16.1274 43.4137 15.3519 42.7998C15.0417 42.5016 14.6533 42.2981 14.2318 42.2132C13.81 42.128 13.3729 42.165 12.9716 42.3199C13.0207 43.2981 13.4868 44.2083 14.252 44.8199C14.5654 45.119 14.956 45.3244 15.3805 45.4128C15.8046 45.5012 16.2448 45.469 16.652 45.3199L16.6519 45.32Z" fill="#2B2B2A"/>
<path id="Vector_18" d="M17.2721 42.4594C16.7672 43.2629 16.6783 44.2594 17.0323 45.1397C17.4386 45.2161 17.8587 45.1652 18.2346 44.9933C18.611 44.8214 18.9244 44.5371 19.1324 44.1795C19.6279 43.3732 19.7168 42.3813 19.3721 41.4996C18.9659 41.4228 18.5458 41.4741 18.1699 41.646C17.7935 41.8179 17.4801 42.1022 17.2721 42.4594V42.4594Z" fill="#2B2B2A"/>
<path id="Vector_19" d="M18.5319 50.7598C18.2596 49.6999 17.5252 48.8187 16.5319 48.3597C16.1351 48.1294 15.6779 48.0254 15.2207 48.0611C14.7636 48.0968 14.3279 48.2709 13.9716 48.5597C14.2332 49.6017 14.9439 50.4736 15.9118 50.9401C16.3136 51.1839 16.7815 51.2973 17.2502 51.2651C17.7194 51.233 18.1667 51.0562 18.5319 50.7597V50.7598Z" fill="#2B2B2A"/>
<path id="Vector_20" d="M18.511 47.4207C18.182 48.4315 18.3132 49.5355 18.8708 50.4408C19.3409 50.4038 19.7869 50.2194 20.1462 49.9145C20.5052 49.6091 20.7587 49.1984 20.8708 48.7408C21.2114 47.731 21.0793 46.6216 20.511 45.7207C20.0422 45.7604 19.5976 45.9457 19.2386 46.2506C18.8801 46.5551 18.6257 46.9644 18.5109 47.4207L18.511 47.4207Z" fill="#2B2B2A"/>
<path id="Vector_21" d="M19.1318 52.9791C18.7033 52.8135 18.235 52.7818 17.7881 52.889C17.3416 52.9961 16.9381 53.2372 16.6318 53.5791C16.9917 54.5662 17.7778 55.3381 18.7716 55.6792C19.198 55.8475 19.6658 55.8823 20.1122 55.7787C20.5586 55.6751 20.9631 55.4381 21.2716 55.0992C20.9073 54.1108 20.1238 53.3345 19.1318 52.9791V52.9791Z" fill="#2B2B2A"/>
<path id="Vector_22" d="M21.5708 54.7197C22.0168 54.5849 22.4141 54.3251 22.716 53.9701C23.0173 53.6152 23.2102 53.1813 23.2709 52.7197C23.4686 51.6626 23.2066 50.5715 22.5512 49.7197C22.1052 49.8541 21.7079 50.1144 21.4061 50.4693C21.1047 50.8238 20.9119 51.2581 20.8512 51.7197C20.6427 52.7768 20.9056 53.8719 21.5708 54.7197Z" fill="#2B2B2A"/>
<path id="Vector_23" d="M22.7713 57.24C22.2672 57.2864 21.7882 57.4824 21.3963 57.8034C21.0039 58.124 20.7168 58.5548 20.5713 59.04C21.2061 59.9458 22.2682 60.4538 23.3713 60.3798C23.8784 60.332 24.3592 60.1329 24.7512 59.8083C25.1436 59.4838 25.4293 59.049 25.5713 58.5597C24.9324 57.6614 23.8713 57.1615 22.7713 57.24V57.24Z" fill="#2B2B2A"/>
<path id="Vector_24" d="M25.7319 58C26.5453 57.2312 26.9011 56.0955 26.6717 55C26.5659 53.8014 25.9458 52.7072 24.9717 52C24.1614 52.771 23.7993 53.9018 24.0119 55C24.1279 56.2005 24.7543 57.2933 25.732 58H25.7319Z" fill="#2B2B2A"/>
<path id="Vector_25" d="M27.4714 60.1599C26.9111 60.2024 26.3772 60.4175 25.9437 60.7756C25.5107 61.134 25.1986 61.6175 25.0517 62.1599C25.7441 63.1505 26.9058 63.7046 28.1115 63.6201C28.6695 63.5692 29.199 63.3514 29.6307 62.9942C30.0628 62.6375 30.3767 62.1585 30.5316 61.6202C29.8441 60.6233 28.6789 60.067 27.4714 60.16L27.4714 60.1599Z" fill="#2B2B2A"/>
<path id="Vector_26" d="M29.912 54.4399C29.0281 55.2922 28.6366 56.5346 28.8718 57.7399C28.9995 59.0519 29.6843 60.2462 30.7522 61.0198C31.6361 60.1671 32.0276 58.9247 31.7919 57.7198C31.6593 56.4091 30.9758 55.2167 29.912 54.4399H29.912Z" fill="#2B2B2A"/>
<path id="Vector_27" d="M57.9109 33.9999C57.9109 29.2258 56.0145 24.6477 52.639 21.2719C49.2632 17.8965 44.685 16 39.911 16C35.1371 16 30.5588 17.8965 27.183 21.2719C23.8076 24.6478 21.9111 29.2259 21.9111 33.9999C21.9111 38.7738 23.8076 43.3521 27.183 46.7279C30.5589 50.1033 35.1371 51.9998 39.911 51.9998C44.685 51.9998 49.2633 50.1033 52.639 46.7279C56.0145 43.352 57.9109 38.7738 57.9109 33.9999ZM39.9109 47.9999C36.198 47.9999 32.6369 46.5249 30.0114 43.8994C27.3859 41.2739 25.9109 37.7128 25.9109 33.9999C25.9109 30.287 27.3859 26.7258 30.0114 24.1003C32.6369 21.4749 36.198 19.9999 39.9109 19.9999C43.6238 19.9999 47.185 21.4749 49.8105 24.1003C52.436 26.7258 53.9109 30.287 53.9109 33.9999C53.9109 37.7128 52.436 41.2739 49.8105 43.8994C47.185 46.5249 43.6238 47.9999 39.9109 47.9999Z" fill="#2B2B2A"/>
<path id="Vector_28" d="M50.4518 31.4399C50.337 31.0867 50.1268 30.7729 49.8446 30.5327C49.562 30.2925 49.2183 30.1358 48.8518 30.0796L43.9115 29.3595L41.7115 24.8997C41.4919 24.4466 41.1098 24.093 40.641 23.9091C40.1718 23.7256 39.6513 23.7256 39.182 23.9091C38.7133 24.093 38.3311 24.4466 38.1115 24.8997L35.9115 29.3595L30.9713 29.9997C30.6048 30.0559 30.261 30.2126 29.9784 30.4528C29.6963 30.693 29.486 31.0068 29.3713 31.3595C29.2655 31.7068 29.2557 32.0769 29.344 32.4291C29.432 32.7814 29.6146 33.1033 29.8713 33.3595L33.4311 36.8394L32.5909 41.7394L32.5913 41.7398C32.5199 42.1144 32.5574 42.5023 32.6994 42.8564C32.8409 43.2108 33.081 43.5175 33.3913 43.7398C33.6811 43.9403 34.0185 44.0604 34.3699 44.0885C34.7212 44.1166 35.0735 44.0514 35.3913 43.8997L39.9114 41.6796L44.3315 43.9997C44.6159 44.1456 44.9315 44.2211 45.2516 44.2198C45.6753 44.2211 46.0882 44.0881 46.4315 43.8399C46.7418 43.6175 46.982 43.3108 47.1235 42.9564C47.2654 42.6023 47.3029 42.2144 47.2315 41.8399L46.3913 36.9398L49.9114 33.4996C50.1864 33.242 50.3829 32.9121 50.4784 32.5474C50.5739 32.1831 50.5646 31.7992 50.4516 31.4398L50.4518 31.4399ZM42.8317 34.8399C42.3625 35.3041 42.1531 35.9702 42.2714 36.6197L42.5915 38.6197L40.8513 37.6997H40.8517C40.2593 37.4068 39.5637 37.4068 38.9714 37.6997L37.2311 38.6197L37.5512 36.6197H37.5517C37.67 35.9702 37.4606 35.3041 36.9914 34.8399L35.5713 33.46L37.5713 33.1801V33.1796C38.2217 33.0818 38.783 32.6707 39.0713 32.0796L39.9512 30.2997L40.8311 32.0796H40.8316C41.12 32.6707 41.6811 33.0818 42.3316 33.1796L44.3316 33.4595L42.8317 34.8399Z" fill="#2B2B2A"/>
</g>
</g>
</svg>
