<svg width="80" height="80" viewBox="0 0 80 80" fill="none" xmlns="http://www.w3.org/2000/svg">
<g id="noun-business-3832862">
<g id="Group">
<path id="Vector" d="M31.1397 53.9194H18.6197C16.8656 53.9248 15.1848 54.6239 13.9447 55.8646C12.7045 57.1048 12.0049 58.7856 12 60.5395V62.0597C12 62.7744 12.3808 63.4346 13 63.7918C13.6188 64.1489 14.3808 64.1489 15 63.7918C15.6188 63.4346 16 62.7744 16 62.0597V60.4999C16 59.8048 16.2759 59.1383 16.7674 58.6472C17.2585 58.1557 17.925 57.8798 18.6196 57.8798H31.1396C31.8414 57.8798 32.5142 58.161 33.0066 58.661C33.4991 59.161 33.7704 59.8378 33.7597 60.5397V62.0598C33.7597 62.7745 34.141 63.4348 34.7597 63.7919C35.3785 64.149 36.141 64.149 36.7597 63.7919C37.3785 63.4348 37.7597 62.7745 37.7597 62.0598V60.5C37.7441 58.7527 37.0401 57.0822 35.8008 55.8504C34.5614 54.6188 32.8869 53.9249 31.1396 53.9196L31.1397 53.9194Z" fill="#2B2B2A"/>
<path id="Vector_2" d="M24.8807 53.0202C26.3999 53.0256 27.8589 52.4265 28.9356 51.3546C30.0128 50.2827 30.6186 48.8265 30.6204 47.3073C30.6221 45.7876 30.0195 44.3301 28.9454 43.256C27.8708 42.1815 26.4133 41.5787 24.8941 41.5806C23.3744 41.5824 21.9182 42.1886 20.8463 43.2654C19.7749 44.3422 19.1753 45.8011 19.1807 47.3202C19.1861 48.8305 19.7883 50.2774 20.8561 51.3452C21.9235 52.4131 23.3704 53.0153 24.8807 53.0202ZM24.8807 45.6001V45.6006C25.366 45.5479 25.8512 45.7041 26.2146 46.0305C26.578 46.3568 26.7856 46.822 26.7856 47.3103C26.7856 47.7987 26.578 48.2639 26.2146 48.5902C25.8512 48.9166 25.366 49.0728 24.8807 49.0201C24.3133 48.959 23.8137 48.6201 23.5463 48.1161C23.2789 47.6121 23.2789 47.0085 23.5463 46.5045C23.8137 46.0004 24.3133 45.6616 24.8807 45.6004V45.6001Z" fill="#2B2B2A"/>
<path id="Vector_3" d="M60.9008 53.9194H48.3808C46.6267 53.9248 44.9459 54.6239 43.7054 55.8646C42.4651 57.1048 41.7661 58.7856 41.7607 60.5396V62.0597C41.7607 62.7744 42.1419 63.4347 42.7607 63.7918C43.3794 64.149 44.1419 64.149 44.7607 63.7918C45.3794 63.4347 45.7607 62.7744 45.7607 62.0597V60.4999C45.7607 59.8048 46.0366 59.1383 46.5281 58.6472C47.0196 58.1557 47.6857 57.8798 48.3808 57.8798H60.9008C61.5954 57.8798 62.2619 58.1557 62.753 58.6472C63.2445 59.1383 63.5204 59.8048 63.5204 60.4999V62.0597C63.5204 62.7744 63.9017 63.4347 64.5204 63.7918C65.1396 64.149 65.9017 64.149 66.5204 63.7918C67.1396 63.4347 67.5204 62.7744 67.5204 62.0597V60.4999C67.5048 58.7526 66.8012 57.0821 65.5619 55.8503C64.3226 54.6186 62.6476 53.9248 60.9008 53.9194H60.9008Z" fill="#2B2B2A"/>
<path id="Vector_4" d="M48.9199 47.3198C48.9199 48.8371 49.5226 50.2921 50.5954 51.3644C51.6681 52.4372 53.123 53.0399 54.64 53.0399C56.157 53.0399 57.6119 52.4372 58.6847 51.3644C59.7575 50.2921 60.3602 48.8372 60.3602 47.3198C60.3602 45.8028 59.7575 44.3479 58.6847 43.2751C57.612 42.2027 56.1571 41.6001 54.64 41.6001C53.1231 41.6001 51.6682 42.2028 50.5954 43.2751C49.5226 44.3478 48.9199 45.8027 48.9199 47.3198ZM54.64 45.5996V45.6001C55.0963 45.6001 55.5338 45.7813 55.8566 46.1037C56.1789 46.4264 56.3602 46.8639 56.3602 47.3198C56.3602 47.776 56.1789 48.2135 55.8566 48.5363C55.5338 48.8587 55.0963 49.0399 54.64 49.0399C54.1838 49.0399 53.7463 48.8587 53.4239 48.5363C53.1012 48.2136 52.9199 47.7761 52.9199 47.3198C52.9145 46.8622 53.094 46.4215 53.4177 46.0979C53.7418 45.7738 54.1824 45.5944 54.64 45.6002L54.64 45.5996Z" fill="#2B2B2A"/>
<path id="Vector_5" d="M28.8804 38.5198C29.4107 38.5198 29.9192 38.309 30.2947 37.934C30.6697 37.5591 30.8804 37.0506 30.8804 36.5198V34.9795V34.98C30.8804 34.2849 31.1563 33.6188 31.6478 33.1273C32.1389 32.6358 32.8054 32.3599 33.5005 32.3599H46.0205H46.02C46.7151 32.3599 47.3816 32.6358 47.8727 33.1273C48.3642 33.6188 48.6401 34.2849 48.6401 34.98V36.5202V36.5198C48.6401 37.2345 49.0214 37.8947 49.6401 38.2519C50.2589 38.609 51.0214 38.609 51.6401 38.2519C52.2589 37.8947 52.6401 37.2345 52.6401 36.5198V34.9795V34.98C52.6401 33.2242 51.9428 31.5402 50.7013 30.2987C49.4598 29.0572 47.7758 28.3599 46.02 28.3599H33.5C31.7442 28.3599 30.0602 29.0572 28.8187 30.2987C27.5773 31.5402 26.8799 33.2242 26.8799 34.98V36.5202V36.5198C26.8799 37.0506 27.0906 37.5591 27.4656 37.934C27.8406 38.309 28.3495 38.5198 28.8799 38.5198H28.8804Z" fill="#2B2B2A"/>
<path id="Vector_6" d="M39.7606 27.4397C41.2798 27.445 42.7391 26.8455 43.8159 25.7741C44.8927 24.7022 45.499 23.246 45.5007 21.7263C45.502 20.2071 44.8994 18.7495 43.8253 17.675C42.7507 16.6009 41.2932 15.9982 39.774 16C38.2543 16.0018 36.7985 16.6076 35.7266 17.6848C34.6548 18.7616 34.0552 20.2206 34.0606 21.7397C34.0659 23.2499 34.6682 24.6968 35.736 25.7642C36.8039 26.8321 38.2503 27.4343 39.7606 27.4397ZM39.7606 20.0598C40.2133 20.0651 40.6459 20.2486 40.9637 20.5705C41.282 20.8924 41.4605 21.3272 41.4605 21.7799C41.4605 22.387 41.1364 22.9482 40.6105 23.2522C40.0847 23.5558 39.4365 23.5558 38.9105 23.2522C38.3847 22.9482 38.0605 22.387 38.0605 21.7799C38.0605 21.3272 38.2391 20.8924 38.5574 20.5705C38.8753 20.2486 39.3079 20.0651 39.7605 20.0598H39.7606Z" fill="#2B2B2A"/>
</g>
</g>
</svg>
