<svg width="80" height="80" viewBox="0 0 80 80" fill="none" xmlns="http://www.w3.org/2000/svg">
<g id="noun-shopping-basket-3832940">
<g id="Group">
<path id="Vector" d="M52.5816 51.0119H33.4822L30.4224 50.5717C28.3292 50.2565 26.3899 49.2846 24.8836 47.7967C23.3777 46.3087 22.3831 44.3815 22.0425 42.2918L18.4425 20.2918C18.2568 19.2588 17.6725 18.3405 16.8158 17.7342C15.9591 17.1284 14.8984 16.8833 13.8627 17.0521C11.2889 17.2905 8.73992 17.7454 6.24254 18.4118C5.76353 18.6078 5.3787 18.9824 5.17022 19.456C4.9613 19.9297 4.94388 20.4658 5.12246 20.952C5.30326 21.4458 5.67112 21.8485 6.14611 22.073C6.62157 22.2976 7.16621 22.3257 7.66269 22.152C8.06269 22.0319 10.0627 21.652 14.4828 21.0319L18.1029 43.0319H18.1025C18.586 45.9525 19.9824 48.6448 22.0917 50.7216C24.2011 52.7989 26.9149 54.1538 29.8426 54.5917L33.0426 55.0716H52.5832H52.5827C53.2974 55.0716 53.9577 54.6908 54.3148 54.0716C54.672 53.4529 54.672 52.6908 54.3148 52.0716C53.9577 51.4529 53.2974 51.0716 52.5827 51.0716L52.5816 51.0119Z" fill="#2B2B2A"/>
<path id="Vector_2" d="M33.343 56.0528C32.4389 56.0474 31.5697 56.4023 30.9282 57.0389C30.2863 57.6756 29.9247 58.542 29.9229 59.446C29.9211 60.35 30.2796 61.2175 30.9188 61.8568C31.5581 62.4961 32.4256 62.8541 33.3296 62.8523C34.2336 62.8505 35.0996 62.4889 35.7363 61.8474C36.3734 61.2054 36.7283 60.3366 36.7229 59.4326C36.7176 58.5376 36.36 57.6809 35.7269 57.0483C35.0944 56.4157 34.2377 56.0577 33.3431 56.0528L33.343 56.0528Z" fill="#2B2B2A"/>
<path id="Vector_3" d="M47.6228 56.0528C46.7201 56.0528 45.854 56.4118 45.216 57.051C44.5785 57.6899 44.2209 58.5564 44.2227 59.4595C44.2245 60.3622 44.5852 61.2274 45.2258 61.864C45.866 62.5006 46.7334 62.8559 47.6361 62.8528C48.5388 62.8492 49.4035 62.4867 50.0387 61.8448C50.674 61.2032 51.028 60.3354 51.0227 59.4328C51.0227 58.5328 50.6637 57.6698 50.0258 57.0354C49.3874 56.401 48.5227 56.0474 47.6227 56.0528L47.6228 56.0528Z" fill="#2B2B2A"/>
<path id="Vector_4" d="M54.4824 25.0918H26.4824C25.9521 25.0918 25.4436 25.3025 25.0686 25.6775C24.6931 26.053 24.4824 26.5614 24.4824 27.0918V39.0918C24.4824 41.744 25.536 44.2878 27.4115 46.1628C29.2869 48.0382 31.8307 49.0918 34.4824 49.0918H46.4824C49.1347 49.0918 51.6784 48.0382 53.5539 46.1628C55.4288 44.2878 56.4824 41.744 56.4824 39.0918V27.0918C56.4824 26.5614 56.2717 26.053 55.8967 25.6775C55.5217 25.3025 55.0132 25.0918 54.4824 25.0918H54.4824ZM52.4824 39.0918C52.4824 40.6833 51.8503 42.2092 50.7253 43.3347C49.5998 44.4597 48.074 45.0918 46.4824 45.0918H34.4824C32.8913 45.0918 31.365 44.4597 30.24 43.3347C29.1146 42.2092 28.4824 40.6833 28.4824 39.0918V29.0918H52.4824V39.0918Z" fill="#2B2B2A"/>
<path id="Vector_5" d="M40.8228 42.9126C41.3532 42.9126 41.8621 42.7019 42.2371 42.3269C42.6121 41.9519 42.8228 41.443 42.8228 40.9126L42.7228 32.9126C42.7228 32.3822 42.5121 31.8733 42.1371 31.4983C41.7621 31.1233 41.2532 30.9126 40.7228 30.9126C40.1924 30.9126 39.6835 31.1233 39.3085 31.4983C38.9335 31.8733 38.7228 32.3822 38.7228 32.9126L38.8228 40.9126C38.8228 41.443 39.0335 41.9519 39.4085 42.3269C39.7835 42.7019 40.2924 42.9126 40.8228 42.9126Z" fill="#2B2B2A"/>
<path id="Vector_6" d="M34.8228 42.9126C35.3532 42.9126 35.8621 42.7019 36.2371 42.3269C36.6121 41.9519 36.8228 41.443 36.8228 40.9126L36.7228 32.9126C36.7228 32.3822 36.5121 31.8733 36.1371 31.4983C35.7621 31.1233 35.2532 30.9126 34.7228 30.9126C34.1924 30.9126 33.6835 31.1233 33.3085 31.4983C32.9335 31.8733 32.7228 32.3822 32.7228 32.9126L32.8228 40.9126C32.8228 41.443 33.0335 41.9519 33.4085 42.3269C33.7835 42.7019 34.2924 42.9126 34.8228 42.9126Z" fill="#2B2B2A"/>
<path id="Vector_7" d="M46.8227 42.9126C47.353 42.9126 47.8619 42.7019 48.2369 42.3269C48.6119 41.9519 48.8227 41.443 48.8227 40.9126L48.7227 32.9126C48.7227 32.3822 48.5119 31.8733 48.1369 31.4983C47.7619 31.1233 47.253 30.9126 46.7227 30.9126C46.1923 30.9126 45.6834 31.1233 45.3084 31.4983C44.9334 31.8733 44.7227 32.3822 44.7227 32.9126L44.8227 40.9126C44.8227 41.443 45.0334 41.9519 45.4084 42.3269C45.7834 42.7019 46.2923 42.9126 46.8227 42.9126Z" fill="#2B2B2A"/>
</g>
</g>
</svg>
