<svg width="80" height="80" viewBox="0 0 80 80" fill="none" xmlns="http://www.w3.org/2000/svg">
<g id="noun-bullhorn-3832851">
<g id="Group">
<path id="Vector" d="M65.199 34.4085C65.1936 32.7919 64.5494 31.2438 63.4065 30.1009C62.2636 28.9581 60.715 28.3134 59.099 28.3085H49.799C48.7222 25.8621 46.9584 23.7817 44.7218 22.3188C42.4847 20.8558 39.8717 20.0741 37.199 20.0684H30.999C30.4687 20.0684 29.9597 20.2791 29.5847 20.6541C29.2097 21.0291 28.999 21.538 28.999 22.0684V45.7084C28.999 46.2387 29.2097 46.7472 29.5847 47.1222C29.9597 47.4976 30.4687 47.7083 30.999 47.7083H37.199C39.6847 47.7079 42.1245 47.0369 44.2611 45.7664C46.3976 44.4954 48.1517 42.6722 49.3392 40.4882H50.999V55.1282V55.1278C50.999 56.9144 51.9521 58.5648 53.499 59.4582C55.0459 60.3515 56.9521 60.3515 58.499 59.4582C60.0459 58.5649 60.999 56.9144 60.999 55.1278V40.1678C61.8972 39.8749 62.7177 39.383 63.399 38.7276C64.5588 37.591 65.2084 36.032 65.199 34.4079V34.4085ZM37.199 43.7085H32.999V24.0685H37.199C39.8723 23.9475 42.4784 24.9252 44.4128 26.7743C46.3472 28.623 47.4414 31.1828 47.4414 33.8586C47.4414 36.5345 46.3472 39.094 44.4128 40.943C42.4784 42.7917 39.8723 43.7693 37.199 43.6484V43.7085ZM56.0996 56.0685C55.5473 56.0685 55.0996 55.6207 55.0996 55.0685V40.489H57.0996V55.129V55.1286C57.0679 55.6576 56.629 56.0697 56.0996 56.0688V56.0685ZM60.5795 35.8685C60.1607 36.2841 59.5893 36.5082 58.9996 36.4886H50.7594C50.9107 35.6435 50.991 34.7867 50.9995 33.9283C50.9969 33.3873 50.9634 32.8462 50.8995 32.3087H59.0995C59.6647 32.2797 60.216 32.4913 60.6164 32.8917C61.0164 33.2922 61.2285 33.8431 61.1995 34.4086C61.2031 34.96 60.9785 35.4881 60.5794 35.8684L60.5795 35.8685Z" fill="#2B2B2A"/>
<path id="Vector_2" d="M20.6989 40.5882L16.4587 44.828C16.0801 45.2039 15.8672 45.715 15.8672 46.2481C15.8672 46.7816 16.0801 47.2927 16.4587 47.6682C16.8346 48.0468 17.3458 48.2597 17.8788 48.2597C18.4123 48.2597 18.9235 48.0468 19.2989 47.6682L23.5392 43.428C24.0463 42.9208 24.2445 42.1816 24.0588 41.4882C23.8731 40.7953 23.3316 40.2538 22.6387 40.0685C21.9458 39.8828 21.2061 40.0806 20.6989 40.5882L20.6989 40.5882Z" fill="#2B2B2A"/>
<path id="Vector_3" d="M20.6994 27.6682C21.0748 28.0468 21.586 28.2597 22.1195 28.2597C22.6525 28.2597 23.1637 28.0468 23.5396 27.6682C23.9182 27.2927 24.1311 26.7816 24.1311 26.2481C24.1311 25.715 23.9182 25.2039 23.5396 24.828L19.2994 20.5882C18.7922 20.0806 18.0525 19.8828 17.3596 20.0685C16.6668 20.2538 16.1252 20.7953 15.9395 21.4882C15.7538 22.1815 15.952 22.9208 16.4592 23.428L20.6994 27.6682Z" fill="#2B2B2A"/>
<path id="Vector_4" d="M23 32.0684H17C16.2852 32.0684 15.625 32.4496 15.2679 33.0684C14.9107 33.6871 14.9107 34.4496 15.2679 35.0684C15.625 35.6871 16.2853 36.0684 17 36.0684H23C23.7147 36.0684 24.375 35.6871 24.7321 35.0684C25.0892 34.4496 25.0892 33.6871 24.7321 33.0684C24.375 32.4496 23.7147 32.0684 23 32.0684Z" fill="#2B2B2A"/>
</g>
</g>
</svg>
